<?xml version="1.0" standalone="no"?>
<!DOCTYPE svg PUBLIC "-//W3C//DTD SVG 20010904//EN"
 "http://www.w3.org/TR/2001/REC-SVG-20010904/DTD/svg10.dtd">
<svg version="1.0" xmlns="http://www.w3.org/2000/svg"
 width="700.000000pt" height="700.000000pt" viewBox="0 0 700.000000 700.000000"
 preserveAspectRatio="xMidYMid meet">
<metadata>
Created by potrace 1.14, written by Peter Selinger 2001-2017
</metadata>
<g transform="translate(0.000000,700.000000) scale(0.100000,-0.100000)"
fill="#000000" stroke="none">
<path d="M3508 6355 c-1 -2 -33 -6 -69 -9 -81 -6 -182 -22 -227 -35 -18 -5
-33 -10 -35 -9 -16 3 -249 -71 -261 -83 -6 -5 -16 -9 -24 -9 -21 0 -225 -103
-302 -153 -217 -138 -387 -303 -525 -507 -60 -89 -157 -276 -177 -342 -6 -21
-17 -39 -25 -39 -7 -1 -16 -2 -20 -3 -5 -1 -33 -6 -63 -10 -197 -28 -445 -123
-627 -241 -312 -203 -552 -523 -645 -860 -157 -571 19 -1147 473 -1550 102
-90 290 -208 409 -255 30 -12 64 -26 75 -31 33 -15 135 -46 205 -62 66 -16
106 -22 215 -34 81 -10 3735 -9 3806 0 270 36 520 155 712 342 190 184 302
394 362 680 11 51 15 327 6 375 -5 25 -12 63 -15 85 -10 62 -71 236 -110 312
-93 181 -245 353 -414 467 -124 83 -342 171 -474 190 -21 4 -54 9 -73 12 -19
3 -69 6 -110 7 l-75 1 -1 91 c-2 213 -39 388 -124 590 -45 109 -57 130 -129
245 -114 182 -311 385 -484 497 -31 21 -59 40 -62 43 -7 7 -42 26 -138 77
-173 92 -428 174 -612 198 -30 4 -64 9 -75 12 -24 5 -362 13 -367 8z m442
-464 c576 -120 997 -513 1093 -1021 23 -120 26 -217 10 -334 -28 -203 -23
-245 41 -313 54 -58 87 -65 331 -68 121 -2 231 -6 245 -9 14 -3 39 -8 55 -12
210 -42 418 -203 524 -406 164 -313 108 -688 -141 -938 -102 -103 -215 -169
-364 -212 l-79 -23 -1865 0 c-1026 0 -1890 3 -1920 8 -265 37 -499 154 -687
345 -46 47 -83 88 -83 92 0 4 -11 19 -24 35 -35 41 -113 193 -142 277 -170
498 67 1052 555 1297 75 38 203 86 255 95 15 3 34 7 44 10 36 11 80 16 182 22
174 9 249 62 280 197 79 340 362 672 714 836 144 68 331 124 458 137 35 3 65
8 68 11 2 2 81 2 175 0 123 -3 199 -11 275 -26z"/>
<path d="M1413 1379 c-109 -23 -182 -124 -169 -236 10 -90 67 -160 147 -184
22 -6 774 -9 2119 -9 l2084 0 43 21 c163 79 162 306 -1 392 l-41 21 -2077 1
c-1142 0 -2089 -2 -2105 -6z"/>
</g>
</svg>
